<svg width="234" height="30" viewBox="0 0 234 30" fill="none" xmlns="http://www.w3.org/2000/svg">
<path d="M21.88 9.96C21.88 11.5867 21.5067 13.08 20.76 14.44C20.0133 15.7733 18.8667 16.8533 17.32 17.68C15.7733 18.5067 13.8533 18.92 11.56 18.92H7.32V29H0.48V0.919999H11.56C13.8 0.919999 15.6933 1.30667 17.24 2.08C18.7867 2.85333 19.9467 3.92 20.72 5.28C21.4933 6.64 21.88 8.2 21.88 9.96ZM11.04 13.48C12.3467 13.48 13.32 13.1733 13.96 12.56C14.6 11.9467 14.92 11.08 14.92 9.96C14.92 8.84 14.6 7.97333 13.96 7.36C13.32 6.74667 12.3467 6.44 11.04 6.44H7.32V13.48H11.04ZM42.9209 24.04H32.4409L30.7609 29H23.6009L33.7609 0.919999H41.6809L51.8409 29H44.6009L42.9209 24.04ZM41.1609 18.76L37.6809 8.48L34.2409 18.76H41.1609ZM93.5731 0.919999L86.2531 29H77.9731L73.4931 10.52L68.8531 29H60.5731L53.4531 0.919999H60.7731L64.8131 21.36L69.8131 0.919999H77.3331L82.1331 21.36L86.2131 0.919999H93.5731ZM122.123 29H115.283L103.843 11.68V29H97.0034V0.919999H103.843L115.283 18.32V0.919999H122.123V29ZM137.242 29.28C135.188 29.28 133.348 28.9467 131.722 28.28C130.095 27.6133 128.788 26.6267 127.802 25.32C126.842 24.0133 126.335 22.44 126.282 20.6H133.562C133.668 21.64 134.028 22.44 134.642 23C135.255 23.5333 136.055 23.8 137.042 23.8C138.055 23.8 138.855 23.5733 139.442 23.12C140.028 22.64 140.322 21.9867 140.322 21.16C140.322 20.4667 140.082 19.8933 139.602 19.44C139.148 18.9867 138.575 18.6133 137.882 18.32C137.215 18.0267 136.255 17.6933 135.002 17.32C133.188 16.76 131.708 16.2 130.562 15.64C129.415 15.08 128.428 14.2533 127.602 13.16C126.775 12.0667 126.362 10.64 126.362 8.88C126.362 6.26667 127.308 4.22667 129.202 2.76C131.095 1.26667 133.562 0.52 136.602 0.52C139.695 0.52 142.188 1.26667 144.082 2.76C145.975 4.22667 146.988 6.28 147.122 8.92H139.722C139.668 8.01333 139.335 7.30667 138.722 6.8C138.108 6.26667 137.322 6 136.362 6C135.535 6 134.868 6.22667 134.362 6.68C133.855 7.10666 133.602 7.73333 133.602 8.56C133.602 9.46667 134.028 10.1733 134.882 10.68C135.735 11.1867 137.068 11.7333 138.882 12.32C140.695 12.9333 142.162 13.52 143.282 14.08C144.428 14.64 145.415 15.4533 146.242 16.52C147.068 17.5867 147.482 18.96 147.482 20.64C147.482 22.24 147.068 23.6933 146.242 25C145.442 26.3067 144.268 27.3467 142.722 28.12C141.175 28.8933 139.348 29.28 137.242 29.28ZM176.011 0.919999V29H169.171V17.44H158.531V29H151.691V0.919999H158.531V11.92H169.171V0.919999H176.011ZM194.229 29.28C191.589 29.28 189.162 28.6667 186.949 27.44C184.762 26.2133 183.015 24.5067 181.709 22.32C180.429 20.1067 179.789 17.6267 179.789 14.88C179.789 12.1333 180.429 9.66667 181.709 7.48C183.015 5.29333 184.762 3.58667 186.949 2.36C189.162 1.13333 191.589 0.52 194.229 0.52C196.869 0.52 199.282 1.13333 201.469 2.36C203.682 3.58667 205.415 5.29333 206.669 7.48C207.949 9.66667 208.589 12.1333 208.589 14.88C208.589 17.6267 207.949 20.1067 206.669 22.32C205.389 24.5067 203.655 26.2133 201.469 27.44C199.282 28.6667 196.869 29.28 194.229 29.28ZM194.229 23.04C196.469 23.04 198.255 22.2933 199.589 20.8C200.949 19.3067 201.629 17.3333 201.629 14.88C201.629 12.4 200.949 10.4267 199.589 8.96C198.255 7.46666 196.469 6.72 194.229 6.72C191.962 6.72 190.149 7.45333 188.789 8.92C187.455 10.3867 186.789 12.3733 186.789 14.88C186.789 17.36 187.455 19.3467 188.789 20.84C190.149 22.3067 191.962 23.04 194.229 23.04ZM233.794 9.96C233.794 11.5867 233.421 13.08 232.674 14.44C231.927 15.7733 230.781 16.8533 229.234 17.68C227.687 18.5067 225.767 18.92 223.474 18.92H219.234V29H212.394V0.919999H223.474C225.714 0.919999 227.607 1.30667 229.154 2.08C230.701 2.85333 231.861 3.92 232.634 5.28C233.407 6.64 233.794 8.2 233.794 9.96ZM222.954 13.48C224.261 13.48 225.234 13.1733 225.874 12.56C226.514 11.9467 226.834 11.08 226.834 9.96C226.834 8.84 226.514 7.97333 225.874 7.36C225.234 6.74667 224.261 6.44 222.954 6.44H219.234V13.48H222.954Z" fill="black"/>
</svg>
