<svg width="223" height="72" viewBox="0 0 223 72" fill="none" xmlns="http://www.w3.org/2000/svg">
<path d="M105.32 34.94C107.027 35.34 108.373 36.1667 109.36 37.42C110.373 38.6733 110.88 40.1267 110.88 41.78C110.88 44.2067 110.067 46.1 108.44 47.46C106.84 48.82 104.533 49.5 101.52 49.5H88.36V21.22H101.2C104.08 21.22 106.307 21.8467 107.88 23.1C109.453 24.3533 110.24 26.14 110.24 28.46C110.24 30.1667 109.787 31.5933 108.88 32.74C107.973 33.86 106.787 34.5933 105.32 34.94ZM95.2 32.78H99.68C102.053 32.78 103.24 31.7667 103.24 29.74C103.24 27.7133 102.027 26.7 99.6 26.7H95.2V32.78ZM100.08 43.94C102.613 43.94 103.88 42.9 103.88 40.82C103.88 39.8067 103.547 39.02 102.88 38.46C102.213 37.8733 101.267 37.58 100.04 37.58H95.2V43.94H100.08ZM129.013 49.5L122.893 38.82H121.333V49.5H114.493V21.22H126.173C128.413 21.22 130.306 21.6067 131.853 22.38C133.399 23.1533 134.559 24.22 135.333 25.58C136.106 26.9133 136.493 28.4467 136.493 30.18C136.493 32.2333 135.919 33.98 134.773 35.42C133.653 36.86 132.013 37.8467 129.853 38.38L136.573 49.5H129.013ZM121.333 34.14H125.573C126.933 34.14 127.933 33.8467 128.573 33.26C129.213 32.6467 129.533 31.7533 129.533 30.58C129.533 29.46 129.199 28.58 128.533 27.94C127.893 27.3 126.906 26.98 125.573 26.98H121.333V34.14ZM146.763 26.66V32.58H156.323V37.74H146.763V44.02H157.523V49.5H139.923V21.22H157.523V26.66H146.763ZM168.247 26.66V32.58H177.807V37.74H168.247V44.02H179.007V49.5H161.407V21.22H179.007V26.66H168.247ZM221.331 21.22L214.571 49.5H206.091L201.571 30.58L197.011 49.5H188.531L181.771 21.22H189.211L192.851 41.7L197.811 21.22H205.291L210.251 41.7L213.931 21.22H221.331Z" fill="black"/>
<circle cx="35.5" cy="36" r="35.5" fill="black"/>
<path d="M41.32 35.94C43.0267 36.34 44.3733 37.1667 45.36 38.42C46.3733 39.6733 46.88 41.1267 46.88 42.78C46.88 45.2067 46.0667 47.1 44.44 48.46C42.84 49.82 40.5333 50.5 37.52 50.5H24.36V22.22H37.2C40.08 22.22 42.3067 22.8467 43.88 24.1C45.4533 25.3533 46.24 27.14 46.24 29.46C46.24 31.1667 45.7867 32.5933 44.88 33.74C43.9733 34.86 42.7867 35.5933 41.32 35.94ZM31.2 33.78H35.68C38.0533 33.78 39.24 32.7667 39.24 30.74C39.24 28.7133 38.0267 27.7 35.6 27.7H31.2V33.78ZM36.08 44.94C38.6133 44.94 39.88 43.9 39.88 41.82C39.88 40.8067 39.5467 40.02 38.88 39.46C38.2133 38.8733 37.2667 38.58 36.04 38.58H31.2V44.94H36.08Z" fill="white"/>
</svg>
